<?xml version="1.0" standalone="no"?><!DOCTYPE svg PUBLIC "-//W3C//DTD SVG 1.1//EN" "http://www.w3.org/Graphics/SVG/1.1/DTD/svg11.dtd"><svg t="1570450379711" class="icon" viewBox="0 0 1024 1024" version="1.1" xmlns="http://www.w3.org/2000/svg" p-id="25099" xmlns:xlink="http://www.w3.org/1999/xlink" width="200" height="200"><defs><style type="text/css"></style></defs><path d="M1.892473 5.82612h1018.166679v1018.188283H1.892473z" fill="" p-id="25100"></path><path d="M1.892473 5.82612l1018.166679 1018.181082M1.892473 1024.007202L1020.059152 5.82612" fill="" p-id="25101"></path><path d="M1.892473 5.82612h1018.166679v1018.188283H1.892473z" fill="#769AFF" p-id="25102"></path><path d="M1.892473 5.82612l1018.166679 1018.181082M1.892473 1024.007202L1020.059152 5.82612" fill="#769AFF" p-id="25103"></path><path d="M907.504851 126.460651a50.411421 50.411421 0 0 0-68.862001 18.457782l-390.630903 676.737323-314.977762-181.819593a50.411421 50.411421 0 0 0-50.404219 87.319783l358.648456 207.018103a50.40422 50.40422 0 0 0 68.8548-18.45058L925.969835 195.322653a50.411421 50.411421 0 0 0-18.464984-68.862002z" fill="#FFFFFF" p-id="25104"></path></svg>